# xmcd CD database file
# Copyright (C) 1995-1998 Ti Kan
#
# Track frame offsets:
#	182
#	18830
#	38135
#	56362
#	72892
#	90617
#	107475
#	130422
#	145630
#	164230
#
# Disc length: 2402 seconds
#
# Revision: 1
# Processed by: cddbd v1.4b41PL2 Copyright (c) Steve Scherf et al.
# Submitted via: CDex 1.30Release
#
DISCID=8109600a
DTITLE=Kenny Rogers - Greatest Country Hits, Volume 2
DYEAR=2001
DGENRE=Country
TTITLE0=Islands In The Stream - (with Dolly Parton)
TTITLE1=What About Me - (with Kim Carnes)
TTITLE2=Tomb of The Unknown Love
TTITLE3=Crazy
TTITLE4=Make No Mistake, She's Mine - (with Ronnie Milsap)
TTITLE5=Twenty Years Ago
TTITLE6=I Prefer The Moonlight
TTITLE7=The Factory
TTITLE8=Morning Desire
TTITLE9=Evening Star
EXTD=YEAR: 2001 ID3G:   2
EXTT0=
EXTT1=
EXTT2=
EXTT3=
EXTT4=
EXTT5=
EXTT6=
EXTT7=
EXTT8=
EXTT9=
PLAYORDER=
